<svg xmlns="http://www.w3.org/2000/svg" shape-rendering="geometricPrecision" text-rendering="geometricPrecision" image-rendering="optimizeQuality" fill-rule="evenodd" clip-rule="evenodd" viewBox="0 0 501 512.07"><path fill="#1A1A1A" d="M322.32 218.93h62.11c4.35 0 7.91 3.58 7.91 7.91v41.79c-23.83.27-46.22 6.71-65.67 17.79h-4.35c-4.33 0-7.91-3.56-7.91-7.91v-51.67c0-4.35 3.56-7.91 7.91-7.91zM43.35 43.62h39.98v53.35c0 14.83 6.9 27.94 18.03 37.06 9.41 7.71 21.92 12.49 35.3 12.49 13.36 0 25.89-4.78 35.29-12.49 11.13-9.12 18.03-22.23 18.03-37.06V43.62h80.74v53.35c0 14.83 6.89 27.94 18.02 37.06 9.41 7.71 21.92 12.49 35.3 12.49 13.37 0 25.89-4.78 35.29-12.49 11.14-9.12 18.03-22.23 18.03-37.06V43.62h41.74c11.9 0 22.74 4.89 30.61 12.75 7.87 7.84 12.75 18.68 12.75 30.6v200.21c-4.48-2.62-9.11-4.99-13.89-7.09V169.13H13.89v256.78c0 18.74 15.34 34.09 34.09 34.09h221.19c2.12 4.77 4.51 9.41 7.15 13.88H43.35c-11.89 0-22.72-4.88-30.58-12.73C4.88 453.25 0 442.42 0 430.54V86.97c0-11.9 4.88-22.73 12.73-30.59 7.88-7.88 18.72-12.76 30.62-12.76zm72.37-26.46c0-9.47 9.37-17.16 20.94-17.16 11.57 0 20.93 7.69 20.93 17.16v79.81c0 9.46-9.36 17.16-20.93 17.16s-20.94-7.7-20.94-17.16V17.16zm187.39 0c0-9.47 9.36-17.16 20.93-17.16s20.93 7.69 20.93 17.16v79.81c0 9.46-9.36 17.16-20.93 17.16s-20.93-7.7-20.93-17.16V17.16zM78.03 218.93h62.11c4.35 0 7.91 3.58 7.91 7.91v51.67c0 4.33-3.58 7.91-7.91 7.91H78.03c-4.34 0-7.92-3.56-7.92-7.91v-51.67c0-4.35 3.57-7.91 7.92-7.91zm0 109.89h62.11c4.35 0 7.91 3.58 7.91 7.91v51.67c0 4.33-3.58 7.91-7.91 7.91H78.03c-4.34 0-7.92-3.56-7.92-7.91v-51.67c0-4.35 3.57-7.91 7.92-7.91zm122.79-109.89h62.11c4.35 0 7.91 3.58 7.91 7.91v51.67c0 4.33-3.58 7.91-7.91 7.91h-62.11c-4.33 0-7.91-3.56-7.91-7.91v-51.67c0-4.35 3.56-7.91 7.91-7.91zm0 109.89h62.11c4.35 0 7.91 3.58 7.91 7.91v9.61a135.49 135.49 0 0 0-13.02 49.97h-57c-4.33 0-7.91-3.56-7.91-7.91v-51.67c0-4.35 3.56-7.91 7.91-7.91z"/><path fill="#10A64A" d="M393.9 297.88c59.14 0 107.1 47.96 107.1 107.1 0 59.13-47.96 107.09-107.1 107.09-59.13 0-107.09-47.96-107.09-107.09 0-59.14 47.96-107.1 107.09-107.1zm-30.93 91.95 17.53 16.56 41.91-43.15c3.44-3.47 5.59-6.28 9.82-1.92l13.73 14.08c4.52 4.45 4.29 7.08.04 11.23l-57.65 57.39c-8.98 8.79-7.41 9.33-16.5.31l-32-31.82c-1.89-2.04-1.7-4.12.39-6.16l15.94-16.54c2.42-2.55 4.34-2.33 6.79.02z"/></svg>